<?xml version="1.0" standalone="no"?>
<!DOCTYPE svg PUBLIC "-//W3C//DTD SVG 20010904//EN"
 "http://www.w3.org/TR/2001/REC-SVG-20010904/DTD/svg10.dtd">
<svg version="1.0" xmlns="http://www.w3.org/2000/svg"
 width="500.000000pt" height="500.000000pt" viewBox="0 0 500.000000 500.000000"
 preserveAspectRatio="xMidYMid meet">
<metadata>
Created by potrace 1.13, written by Peter Selinger 2001-2015
</metadata>
<g transform="translate(0.000000,500.000000) scale(0.100000,-0.100000)"
fill="#000000" stroke="none">
<path d="M0 4830 l0 -169 68 -3 67 -3 3 -1593 2 -1593 -29 -10 c-16 -6 -32
-20 -35 -32 -3 -12 -6 -131 -6 -265 l0 -242 26 -10 c37 -14 187 -13 202 2 13
13 18 514 4 534 -4 7 -18 14 -32 15 l-25 4 0 1595 0 1595 214 3 c155 2 217 -1
222 -9 4 -7 5 -38 3 -70 -3 -50 -10 -67 -50 -125 -51 -72 -49 -84 14 -84 28 0
32 -3 34 -27 3 -59 -5 -89 -31 -123 -42 -54 -61 -87 -54 -94 4 -3 18 -6 32 -6
43 0 54 -14 54 -64 -1 -37 -10 -58 -48 -115 -26 -38 -44 -75 -40 -80 3 -6 23
-11 44 -11 31 0 40 -4 44 -21 10 -40 -3 -80 -48 -147 -25 -38 -45 -71 -45 -75
0 -4 18 -7 40 -7 75 0 77 -71 4 -174 -25 -36 -43 -70 -39 -76 3 -5 24 -10 46
-10 36 0 39 -2 41 -27 3 -63 -6 -89 -48 -145 -25 -32 -42 -63 -39 -68 3 -6 21
-10 40 -10 41 0 48 -10 47 -67 0 -33 -9 -56 -41 -103 -51 -75 -52 -90 -6 -90
28 0 37 -5 45 -24 14 -39 1 -82 -46 -152 -24 -37 -44 -71 -44 -75 0 -5 18 -9
40 -9 28 0 42 -5 49 -18 16 -30 3 -92 -27 -131 -45 -58 -63 -91 -57 -101 3 -6
23 -10 45 -10 23 0 40 -5 43 -14 8 -19 -2 -96 -14 -110 -43 -51 -79 -108 -74
-116 3 -6 21 -10 40 -10 41 0 48 -10 47 -66 0 -33 -10 -56 -41 -103 -51 -75
-52 -91 -6 -91 28 0 37 -5 44 -22 13 -36 1 -90 -29 -128 -26 -33 -60 -93 -60
-105 0 -3 18 -5 40 -5 28 0 42 -5 49 -18 16 -30 3 -92 -27 -131 -45 -58 -63
-91 -57 -101 3 -6 23 -10 45 -10 43 0 51 -11 44 -65 -5 -38 -19 -65 -67 -127
-33 -44 -29 -58 18 -58 41 0 48 -10 47 -65 0 -34 -10 -56 -47 -110 -51 -72
-50 -85 8 -85 52 0 57 -86 7 -150 -63 -81 -66 -110 -11 -110 30 0 40 -4 44
-19 10 -40 -5 -88 -49 -153 -25 -37 -42 -72 -39 -78 3 -5 23 -10 45 -10 67 0
64 -65 -10 -172 l-49 -73 974 -3 c536 -1 1414 -1 1951 0 l976 3 -51 70 c-55
75 -64 97 -59 141 3 26 8 30 45 35 24 3 45 8 48 11 3 3 -16 36 -41 74 -70 104
-71 174 -2 174 41 0 45 24 12 70 -45 62 -64 102 -64 135 0 39 16 55 52 55 41
0 45 24 12 70 -45 62 -64 102 -64 136 0 39 16 54 56 54 43 0 49 12 22 47 -62
78 -72 98 -73 148 l0 50 42 6 c24 3 45 8 49 12 5 5 -51 94 -68 107 -12 9 -28
60 -28 89 0 36 17 51 57 51 44 0 44 23 -2 83 -40 52 -55 87 -55 126 0 35 17
51 52 51 41 0 45 24 12 70 -45 62 -64 102 -64 136 0 39 16 54 57 54 26 0 33 4
33 19 0 11 -4 22 -9 26 -6 3 -25 27 -42 53 -26 37 -33 58 -33 97 l-1 50 42 6
c24 3 46 8 49 12 4 4 -12 31 -35 62 -46 61 -61 93 -61 134 0 36 17 51 57 51
44 0 44 23 0 81 -47 62 -57 83 -57 123 0 38 20 56 60 56 37 0 34 28 -10 87
-70 92 -65 173 11 173 40 0 37 20 -11 81 -39 50 -55 95 -48 140 2 20 10 25 45
30 24 3 46 8 49 12 4 4 -12 31 -35 62 -46 61 -61 93 -61 134 0 36 17 51 56 51
53 0 52 1 -24 116 -26 39 -32 57 -30 89 3 39 4 40 41 43 22 2 41 10 44 18 5
12 -38 89 -59 104 -12 9 -28 60 -28 90 0 37 24 60 61 60 39 0 37 16 -11 80
-40 53 -55 97 -48 141 2 20 10 25 40 27 59 5 62 21 17 79 -49 64 -59 91 -59
153 0 34 4 50 16 54 9 3 150 6 315 6 l299 0 0 170 0 170 -2500 0 -2500 0 0
-170z m1306 -182 c12 -20 11 -98 -2 -109 -7 -5 -113 -8 -260 -7 l-249 3 -3 49
c-2 27 -1 55 2 62 7 19 501 21 512 2z m2252 0 c13 -13 16 -75 6 -102 -6 -14
-106 -16 -1033 -16 -785 0 -1030 3 -1039 12 -7 7 -12 30 -12 53 0 23 5 46 12
53 17 17 2049 17 2066 0z m697 -53 l0 -60 -254 -3 c-197 -2 -256 1 -263 10 -4
7 -8 30 -8 50 0 73 -16 69 269 66 l256 -3 0 -60z m-2952 -232 c15 -27 16 -63
1 -77 -14 -14 -48 -16 -262 -14 l-247 3 -3 33 c-6 64 -17 62 257 62 137 0 252
-3 254 -7z m2262 -22 c3 -17 1 -39 -5 -50 -11 -21 -11 -21 -1026 -21 -681 0
-1022 3 -1035 10 -22 12 -26 59 -7 78 9 9 254 12 1039 12 l1027 0 7 -29z m693
-9 c6 -62 5 -62 -264 -62 l-244 0 -11 24 c-7 14 -9 36 -5 50 l6 26 258 -2 257
-3 3 -33z m-2973 -218 c27 -11 38 -53 20 -80 l-15 -24 -238 0 c-172 0 -241 3
-250 12 -18 18 -15 75 6 87 19 11 449 15 477 5z m2261 -2 c18 -12 25 -48 15
-76 l-11 -26 -1013 0 c-900 0 -1015 2 -1035 16 -27 19 -28 48 -2 74 20 20 33
20 1028 20 554 0 1012 -4 1018 -8z m695 -2 c22 -12 27 -68 7 -88 -9 -9 -79
-12 -255 -12 -236 0 -243 1 -253 21 -13 23 -5 70 13 81 19 12 465 10 488 -2z
m-2932 -278 c11 -21 4 -63 -13 -74 -13 -9 -468 -11 -490 -2 -16 6 -23 73 -9
87 3 4 118 7 254 7 231 0 249 -1 258 -18z m2256 -5 c4 -12 1 -35 -4 -50 l-11
-27 -1025 2 c-899 3 -1027 5 -1035 18 -13 21 -12 54 2 68 9 9 254 12 1040 12
l1028 0 5 -23z m693 -17 c6 -58 -3 -60 -270 -60 l-238 0 -11 24 c-7 14 -9 36
-5 50 l6 26 258 -2 257 -3 3 -35z m-2959 -219 c19 -12 23 -67 7 -80 -9 -8 -90
-11 -262 -9 l-249 3 -3 33 c-6 64 -16 62 250 62 134 0 249 -4 257 -9z m2259
-3 c13 -13 16 -47 6 -72 -6 -14 -106 -16 -1029 -16 -563 0 -1030 3 -1039 6
-23 9 -21 70 2 83 27 16 2044 15 2060 -1z m690 3 c8 -5 12 -23 10 -47 l-3 -39
-254 -3 c-197 -2 -256 1 -263 10 -12 19 -10 62 4 76 14 14 484 17 506 3z
m-2945 -258 c11 -21 15 -60 7 -73 -8 -12 -48 -16 -232 -18 -123 -2 -238 0
-255 3 -30 5 -33 9 -33 44 0 21 3 41 7 44 9 10 501 9 506 0z m2261 -9 c10 -27
7 -52 -10 -68 -14 -14 -119 -16 -1017 -15 -551 1 -1013 4 -1027 8 -27 7 -35
29 -26 67 l6 24 1034 0 c934 0 1034 -2 1040 -16z m694 -24 c6 -58 -4 -60 -261
-60 -138 0 -236 4 -248 10 -19 11 -25 43 -13 74 6 15 35 16 263 14 l256 -3 3
-35z m-2960 -222 c22 -29 23 -57 3 -77 -20 -20 -32 -21 -247 -21 -136 0 -233
4 -245 10 -22 12 -27 68 -7 88 17 17 482 17 496 0z m2263 -14 c10 -28 3 -64
-15 -76 -6 -4 -463 -8 -1016 -8 -894 0 -1008 2 -1028 16 -27 19 -28 48 -2 74
20 20 33 20 1035 20 l1015 0 11 -26z m680 16 c13 -7 19 -21 19 -45 0 -24 -6
-38 -19 -45 -12 -6 -110 -10 -250 -10 -195 0 -232 2 -245 16 -18 18 -20 33 -6
68 l10 26 235 0 c144 0 244 -4 256 -10z m-2936 -274 c12 -18 13 -30 5 -50
l-10 -26 -252 2 -253 3 -3 33 c-6 62 -4 62 259 62 l239 0 15 -24z m2255 3 c6
-11 8 -33 5 -50 l-7 -29 -1031 2 -1032 3 -9 27 c-8 22 -6 32 9 48 18 20 26 20
1036 20 1018 0 1018 0 1029 -21z m689 7 c7 -8 11 -30 9 -48 l-3 -33 -257 -3
-256 -2 -7 29 c-3 17 -1 39 5 50 10 20 19 21 254 21 199 0 246 -3 255 -14z
m-2945 -262 c15 -15 13 -58 -3 -77 -4 -4 -120 -6 -257 -5 l-249 3 -3 33 c-6
64 -16 62 252 62 209 0 247 -2 260 -16z m2254 4 c13 -13 16 -47 6 -72 -6 -14
-106 -16 -1033 -16 -785 0 -1030 3 -1039 12 -18 18 -15 65 6 77 27 16 2044 15
2060 -1z m690 3 c8 -5 12 -23 10 -47 l-3 -39 -254 -3 c-197 -2 -256 1 -263 10
-12 19 -10 62 4 76 14 14 484 17 506 3z m-2937 -258 c10 -65 5 -81 -26 -84
-11 -1 -127 -1 -257 -1 l-238 2 0 45 0 45 260 0 c143 0 261 -3 261 -7z m2254
-14 c9 -26 -1 -66 -17 -70 -7 -2 -474 -2 -1038 1 l-1025 5 -3 28 c-7 61 -87
57 1042 57 l1035 0 6 -21z m693 -22 c3 -30 -1 -39 -17 -45 -11 -4 -129 -5
-263 -2 l-243 5 -3 28 c-7 59 -16 58 265 55 l258 -3 3 -38z m-2947 -241 c5
-16 4 -37 -2 -48 -9 -17 -25 -18 -262 -16 l-252 3 -3 33 c-6 65 -17 63 260 60
l252 -3 7 -29z m2250 7 c7 -19 7 -35 0 -50 l-11 -23 -1023 0 c-782 0 -1026 3
-1035 12 -17 17 -15 54 4 72 14 14 121 16 1035 16 l1019 0 11 -27z m683 21
c22 -8 22 -80 0 -88 -9 -3 -122 -6 -253 -6 -171 0 -240 3 -249 12 -15 15 -15
43 -2 69 10 18 24 19 250 19 131 0 245 -3 254 -6z m-2939 -278 c12 -18 13 -30
5 -50 l-10 -26 -252 2 -253 3 -3 33 c-6 64 -16 62 252 62 l246 0 15 -24z
m2257 -1 c8 -19 8 -31 0 -50 l-12 -25 -1024 0 c-1003 0 -1026 0 -1036 19 -14
27 -13 47 6 65 14 14 121 16 1035 16 l1019 0 12 -25z m686 13 c13 -13 16 -47
6 -72 -5 -14 -38 -16 -259 -16 l-253 0 -7 29 c-3 17 -1 39 5 50 10 20 19 21
253 21 176 0 246 -3 255 -12z m-2944 -264 c15 -15 13 -58 -3 -77 -4 -4 -120
-6 -257 -5 l-249 3 -3 33 c-6 64 -16 62 252 62 209 0 247 -2 260 -16z m2258
-9 c8 -19 8 -31 0 -50 l-12 -25 -1023 0 c-782 0 -1026 3 -1035 12 -18 18 -15
65 6 77 11 7 362 10 1035 11 l1017 0 12 -25z m686 16 c8 -5 12 -23 10 -47 l-3
-39 -254 -3 c-197 -2 -256 1 -263 10 -12 19 -10 62 4 76 14 14 484 17 506 3z
m-2940 -263 c8 -11 9 -34 3 -70 0 -5 -118 -8 -261 -8 l-260 0 0 45 0 45 254 0
c191 0 256 -3 264 -12z m2257 -9 c4 -11 4 -31 1 -45 l-6 -24 -1038 2 -1037 3
-3 28 c-7 61 -87 57 1042 57 l1035 0 6 -21z m690 -24 l0 -40 -260 0 -260 0 -3
28 c-7 59 -16 58 265 55 l258 -3 0 -40z m-2944 -239 c5 -16 4 -37 -2 -48 -9
-17 -25 -18 -262 -16 l-252 3 -3 33 c-6 65 -17 63 260 60 l252 -3 7 -29z
m2253 1 c7 -19 7 -33 0 -45 -10 -16 -84 -17 -1028 -20 -690 -1 -1023 1 -1037
8 -22 12 -26 59 -7 78 9 9 248 12 1037 10 l1026 -3 9 -28z m680 27 c22 -8 22
-80 0 -88 -9 -3 -122 -6 -253 -6 -253 0 -261 1 -261 50 0 49 8 50 261 50 131
0 244 -3 253 -6z m-2934 -279 c6 -16 6 -34 0 -50 l-10 -25 -252 2 -253 3 -3
33 c-6 64 -17 62 258 62 l250 0 10 -25z m2252 0 c8 -19 8 -31 0 -50 l-12 -25
-1019 0 c-914 0 -1021 2 -1035 16 -19 18 -20 38 -6 65 10 19 33 19 1036 19
l1024 0 12 -25z m686 13 c7 -7 12 -24 12 -38 0 -49 -7 -50 -267 -50 l-243 0
-12 25 c-8 19 -8 31 0 50 l12 25 243 0 c176 0 246 -3 255 -12z m-2939 -266
c14 -27 2 -71 -23 -77 -11 -3 -127 -4 -256 -3 l-235 3 -3 33 c-6 64 -17 62
257 62 229 0 251 -2 260 -18z m2252 -5 c7 -15 7 -31 0 -50 l-11 -27 -1019 0
c-914 0 -1021 2 -1035 16 -19 18 -21 55 -4 72 9 9 253 12 1035 12 l1023 0 11
-23z m697 -15 c6 -62 5 -62 -264 -62 l-244 0 -11 24 c-7 14 -9 36 -5 50 l6 26
258 -2 257 -3 3 -33z m-2950 -234 c8 -11 9 -34 3 -70 0 -5 -118 -8 -261 -8
l-260 0 0 38 c0 21 3 42 7 45 3 4 118 7 253 7 186 0 250 -3 258 -12z m2258
-12 c3 -14 4 -33 2 -43 -3 -17 -44 -18 -1043 -18 l-1040 0 -3 28 c-7 61 -87
57 1042 57 l1036 0 6 -24z m689 -21 l0 -40 -260 0 -260 0 -3 28 c-7 59 -16 58
265 55 l258 -3 0 -40z"/>
</g>
</svg>
