<?xml version="1.0" standalone="no"?>
<!DOCTYPE svg PUBLIC "-//W3C//DTD SVG 20010904//EN"
 "http://www.w3.org/TR/2001/REC-SVG-20010904/DTD/svg10.dtd">
<svg version="1.0" xmlns="http://www.w3.org/2000/svg"
 width="32.000000pt" height="32.000000pt" viewBox="0 0 32.000000 32.000000"
 preserveAspectRatio="xMidYMid meet">
<metadata>
Created by potrace 1.13, written by Peter Selinger 2001-2015
</metadata>
<g transform="translate(0.000000,32.000000) scale(0.100000,-0.100000)"
fill="#000000" stroke="none">
<path d="M84 286 c-45 -45 -46 -91 -4 -139 23 -26 30 -44 30 -74 0 -39 22 -73
47 -73 21 0 43 38 43 74 0 28 8 47 30 73 42 48 41 94 -4 139 -26 26 -42 34
-71 34 -29 0 -45 -8 -71 -34z m137 -5 c45 -45 41 -93 -11 -141 -22 -20 -40
-42 -40 -48 0 -7 -3 -11 -7 -11 -5 1 -15 1 -23 -1 -11 -1 -9 -4 5 -10 l20 -9
-20 -1 -20 -1 20 -9 20 -9 -20 -1 -20 -1 20 -10 20 -9 -20 3 c-17 2 -20 9 -18
44 2 36 -3 47 -33 77 -26 26 -34 42 -34 71 0 51 44 95 95 95 27 0 44 -8 66
-29z"/>
</g>
</svg>
